# xmcd CD database file
#
# Track frame offsets:
#	150
#	10403
#	15642
#	43065
#	74413
#	84699
#	123594
#	147237
#	182048
#	249852
#
# Disc length: 3648 seconds
#
# Revision: 0
# Processed by: cddbd v1.5.2PL0 Copyright (c) Steve Scherf et al.
# Submitted via: CDex 1.70beta2
#
DISCID=870e3e0a
DTITLE=François Houle - Au Coeur Du Litige [CD2]
DYEAR=2000
DGENRE=Jazz
TTITLE0=Brace
TTITLE1=Skronk I
TTITLE2=Ice
TTITLE3=Snowbirds
TTITLE4=Watt
TTITLE5=Ghosting
TTITLE6=Skronk II
TTITLE7=The Woodcarver's Wife
TTITLE8=Rive Sud
TTITLE9=Fleur De Peau
EXTD=YEAR: 2000
EXTT0=
EXTT1=
EXTT2=
EXTT3=
EXTT4=
EXTT5=
EXTT6=
EXTT7=
EXTT8=
EXTT9=
PLAYORDER=
